<svg width="373" height="376" viewBox="0 0 373 376" fill="none" xmlns="http://www.w3.org/2000/svg">
<path d="M31.2319 269.329L105.713 269.329L186.848 107.215H31.2319C22.416 171.162 23.4303 206.584 31.2319 269.329Z" fill="url(#paint0_linear_429_7730)"/>
<path d="M112.728 107.215H268.771V269.395H105.729L112.728 107.215Z" fill="#87EBFE"/>
<g style="mix-blend-mode:color-burn">
<path d="M186.708 268.34L112.833 107.629L260.625 107.629L186.708 268.34Z" fill="url(#paint1_linear_429_7730)"/>
<path d="M186.708 268.34L112.833 107.629L260.625 107.629L186.708 268.34Z" stroke="url(#paint2_linear_429_7730)" stroke-width="0.827113"/>
</g>
<path d="M31.2318 107.215L107.542 269.329L113.268 107.215H31.2318Z" fill="url(#paint3_linear_429_7730)"/>
<g style="mix-blend-mode:color-dodge">
<path d="M31.2318 269.329H105.708L186.847 107.215L31.2318 269.329Z" fill="url(#paint4_linear_429_7730)"/>
</g>
<path d="M342.226 269.329H267.741L260.202 107.215H342.226C351.805 170.525 351.019 206.02 342.226 269.329Z" fill="url(#paint5_linear_429_7730)"/>
<path d="M342.226 107.215L265.916 269.329L260.19 107.215H342.226Z" fill="url(#paint6_linear_429_7730)"/>
<g style="mix-blend-mode:color-dodge">
<path d="M342.226 269.329H267.736L186.611 107.215L342.226 269.329Z" fill="url(#paint7_linear_429_7730)"/>
</g>
<path d="M186.729 371.064L342.226 269.33H31.2318L186.729 371.064Z" fill="url(#paint8_linear_429_7730)"/>
<path d="M186.729 371.064L105.711 269.33L31.2318 269.33C86.707 314.939 120.253 337.773 186.729 371.064Z" fill="url(#paint9_linear_429_7730)"/>
<path d="M186.729 371.064L267.747 269.33L342.226 269.33C288.828 319.751 253.406 340.018 186.729 371.064Z" fill="url(#paint10_linear_429_7730)"/>
<path d="M186.729 371.064L267.747 269.33L342.226 269.33C288.828 319.751 253.406 340.018 186.729 371.064Z" fill="url(#paint11_linear_429_7730)"/>
<path d="M186.729 5.48059L342.226 107.215L31.2318 107.215L186.729 5.48059Z" fill="url(#paint12_linear_429_7730)"/>
<path d="M186.729 5.48059L113.264 107.215H31.2318C79.5752 62.1754 120.695 34.4641 186.729 5.48059Z" fill="url(#paint13_linear_429_7730)"/>
<path d="M186.729 5.48059L260.194 107.215H342.226C287.857 60.3876 249.866 32.6762 186.729 5.48059Z" fill="url(#paint14_linear_429_7730)"/>
<ellipse cx="187.882" cy="191.654" rx="113.326" ry="110.97" fill="url(#paint15_linear_429_7730)" stroke="url(#paint16_linear_429_7730)"/>
<circle cx="186.848" cy="257.368" r="22.5305" fill="url(#paint17_linear_429_7730)" stroke="url(#paint18_linear_429_7730)" stroke-width="0.827113"/>
<circle cx="187.25" cy="256.747" r="34.1101" stroke="url(#paint19_linear_429_7730)" stroke-width="23.1592"/>
<circle cx="187.25" cy="256.747" r="22.5305" transform="rotate(-60 187.25 256.747)" fill="url(#paint20_radial_429_7730)"/>
<path d="M259.987 107.587L186.35 5.78809" stroke="url(#paint21_linear_429_7730)"/>
<path d="M266.967 267.189L259.987 107.587" stroke="url(#paint22_linear_429_7730)"/>
<path d="M260.415 107.481L113.043 107.481" stroke="url(#paint23_linear_429_7730)"/>
<path d="M112.901 109.793L105.921 269.396" stroke="url(#paint24_linear_429_7730)"/>
<path d="M186.905 5.78811L113.268 107.587" stroke="url(#paint25_linear_429_7730)"/>
<circle cx="186.611" cy="185.387" r="34.0196" transform="rotate(-90 186.611 185.387)" fill="url(#paint26_radial_429_7730)" stroke="url(#paint27_linear_429_7730)"/>
<path opacity="0.5" d="M341.726 114.732C341.726 134.486 324.57 152.525 296.471 165.655C268.411 178.766 229.612 186.888 186.729 186.888C143.846 186.888 105.047 178.766 76.9876 165.655C48.8877 152.525 31.7318 134.486 31.7318 114.732C31.7318 94.9779 48.8877 76.939 76.9876 63.8093C105.047 50.6985 143.846 42.5758 186.729 42.5758C229.612 42.5758 268.411 50.6985 296.471 63.8093C324.57 76.939 341.726 94.9779 341.726 114.732Z" stroke="url(#paint28_angular_429_7730)"/>
<path opacity="0.5" d="M263.468 49.8505C263.468 50.9165 262.999 51.9978 262.025 53.0899C261.049 54.1851 259.585 55.2655 257.66 56.3104C253.809 58.3998 248.203 60.2973 241.233 61.8967C227.302 65.0936 208.032 67.0755 186.729 67.0755C165.426 67.0755 146.156 65.0936 132.225 61.8967C125.255 60.2973 119.65 58.3998 115.798 56.3104C113.873 55.2655 112.409 54.1851 111.433 53.0899C110.459 51.9978 109.99 50.9165 109.99 49.8505C109.99 48.7844 110.459 47.7031 111.433 46.611C112.409 45.5158 113.873 44.4354 115.798 43.3905C119.65 41.3011 125.255 39.4037 132.225 37.8043C146.156 34.6073 165.426 32.6254 186.729 32.6254C208.032 32.6254 227.302 34.6073 241.233 37.8043C248.203 39.4037 253.809 41.3011 257.66 43.3905C259.585 44.4354 261.049 45.5158 262.025 46.611C262.999 47.7031 263.468 48.7844 263.468 49.8505Z" stroke="url(#paint29_angular_429_7730)"/>
<path opacity="0.5" d="M345.202 236.643C345.202 262.021 327.614 285.088 298.981 301.838C270.36 318.582 230.787 328.953 187.049 328.953C143.311 328.953 103.738 318.582 75.1167 301.838C46.4833 285.088 28.8958 262.021 28.8958 236.643C28.8958 211.266 46.4833 188.199 75.1167 171.448C103.738 154.705 143.311 144.333 187.049 144.333C230.787 144.333 270.36 154.705 298.981 171.448C327.614 188.199 345.202 211.266 345.202 236.643Z" stroke="url(#paint30_angular_429_7730)"/>
<defs>
<linearGradient id="paint0_linear_429_7730" x1="179.173" y1="269.329" x2="179.173" y2="107.215" gradientUnits="userSpaceOnUse">
<stop stop-color="#3B50FC"/>
<stop offset="1" stop-color="#98F1FF"/>
</linearGradient>
<linearGradient id="paint1_linear_429_7730" x1="186.729" y1="107.215" x2="186.729" y2="269.33" gradientUnits="userSpaceOnUse">
<stop stop-color="#DDC1FF"/>
<stop offset="1" stop-color="#4F80FF"/>
</linearGradient>
<linearGradient id="paint2_linear_429_7730" x1="186.729" y1="107.215" x2="186.729" y2="269.33" gradientUnits="userSpaceOnUse">
<stop stop-color="#81E0FE" stop-opacity="0"/>
<stop offset="1" stop-color="white"/>
</linearGradient>
<linearGradient id="paint3_linear_429_7730" x1="83.2293" y1="215.493" x2="31.2318" y2="107.215" gradientUnits="userSpaceOnUse">
<stop stop-color="white" stop-opacity="0"/>
<stop offset="1" stop-color="white" stop-opacity="0.8"/>
</linearGradient>
<linearGradient id="paint4_linear_429_7730" x1="105.471" y1="269.329" x2="185.385" y2="109.587" gradientUnits="userSpaceOnUse">
<stop stop-color="white" stop-opacity="0"/>
<stop offset="1" stop-color="#BD89FF"/>
</linearGradient>
<linearGradient id="paint5_linear_429_7730" x1="264.419" y1="269.329" x2="264.419" y2="107.215" gradientUnits="userSpaceOnUse">
<stop stop-color="#3B50FC"/>
<stop offset="1" stop-color="#98F1FF"/>
</linearGradient>
<linearGradient id="paint6_linear_429_7730" x1="290.229" y1="215.493" x2="342.226" y2="107.215" gradientUnits="userSpaceOnUse">
<stop stop-color="white" stop-opacity="0"/>
<stop offset="1" stop-color="white" stop-opacity="0.8"/>
</linearGradient>
<linearGradient id="paint7_linear_429_7730" x1="267.987" y1="269.329" x2="188.073" y2="109.587" gradientUnits="userSpaceOnUse">
<stop stop-color="white" stop-opacity="0"/>
<stop offset="1" stop-color="#BD89FF"/>
</linearGradient>
<linearGradient id="paint8_linear_429_7730" x1="186.729" y1="371.064" x2="203.647" y2="251.173" gradientUnits="userSpaceOnUse">
<stop stop-color="#BD89FF"/>
<stop offset="1" stop-color="white"/>
</linearGradient>
<linearGradient id="paint9_linear_429_7730" x1="186.729" y1="376.012" x2="63.9908" y2="269.33" gradientUnits="userSpaceOnUse">
<stop offset="0.318851" stop-color="#71E9FD"/>
<stop offset="1" stop-color="#633CFF"/>
</linearGradient>
<linearGradient id="paint10_linear_429_7730" x1="186.729" y1="376.012" x2="309.467" y2="269.33" gradientUnits="userSpaceOnUse">
<stop stop-color="#C08EFF"/>
<stop offset="1" stop-color="#17F5FF"/>
</linearGradient>
<linearGradient id="paint11_linear_429_7730" x1="186.729" y1="376.012" x2="309.467" y2="269.33" gradientUnits="userSpaceOnUse">
<stop stop-color="white"/>
<stop offset="1" stop-color="#C08EFF" stop-opacity="0"/>
</linearGradient>
<linearGradient id="paint12_linear_429_7730" x1="186.729" y1="5.48059" x2="186.729" y2="107.215" gradientUnits="userSpaceOnUse">
<stop stop-color="#4270FF"/>
<stop offset="1" stop-color="#85E8FD"/>
</linearGradient>
<linearGradient id="paint13_linear_429_7730" x1="186.729" y1="5.48059" x2="31.2318" y2="107.215" gradientUnits="userSpaceOnUse">
<stop stop-color="#BD89FF"/>
<stop offset="1" stop-color="#6BE2FF"/>
</linearGradient>
<linearGradient id="paint14_linear_429_7730" x1="186.729" y1="5.48059" x2="358.394" y2="50.328" gradientUnits="userSpaceOnUse">
<stop stop-color="white"/>
<stop offset="1" stop-color="#31E6FF"/>
</linearGradient>
<linearGradient id="paint15_linear_429_7730" x1="187.882" y1="80.6838" x2="187.882" y2="302.623" gradientUnits="userSpaceOnUse">
<stop stop-color="white"/>
<stop offset="0.549136" stop-color="#E7D4FF" stop-opacity="0"/>
<stop offset="1" stop-color="#CEA7FF"/>
</linearGradient>
<linearGradient id="paint16_linear_429_7730" x1="187.882" y1="302.623" x2="187.882" y2="80.6838" gradientUnits="userSpaceOnUse">
<stop offset="0.0001" stop-color="#EBFFFA"/>
<stop offset="1" stop-color="white" stop-opacity="0"/>
</linearGradient>
<linearGradient id="paint17_linear_429_7730" x1="186.848" y1="234.837" x2="186.848" y2="279.898" gradientUnits="userSpaceOnUse">
<stop stop-color="#668BFF"/>
<stop offset="1" stop-color="#87EBFE"/>
</linearGradient>
<linearGradient id="paint18_linear_429_7730" x1="186.848" y1="279.898" x2="186.848" y2="234.837" gradientUnits="userSpaceOnUse">
<stop offset="0.0001" stop-color="#EBFFFA"/>
<stop offset="1" stop-color="white" stop-opacity="0"/>
</linearGradient>
<linearGradient id="paint19_linear_429_7730" x1="187.25" y1="264.731" x2="187.25" y2="234.217" gradientUnits="userSpaceOnUse">
<stop offset="0.0001" stop-color="#EBFFFA"/>
<stop offset="1" stop-color="white" stop-opacity="0"/>
</linearGradient>
<radialGradient id="paint20_radial_429_7730" cx="0" cy="0" r="1" gradientUnits="userSpaceOnUse" gradientTransform="translate(187.25 258.54) rotate(-178.54) scale(70.3633 49.0836)">
<stop stop-color="white"/>
<stop offset="0.549136" stop-color="white" stop-opacity="0"/>
<stop offset="1" stop-color="white"/>
</radialGradient>
<linearGradient id="paint21_linear_429_7730" x1="259.987" y1="107.587" x2="186.35" y2="5.78811" gradientUnits="userSpaceOnUse">
<stop stop-color="white" stop-opacity="0"/>
<stop offset="1" stop-color="white"/>
</linearGradient>
<linearGradient id="paint22_linear_429_7730" x1="333.624" y1="209.386" x2="259.987" y2="107.587" gradientUnits="userSpaceOnUse">
<stop stop-color="white" stop-opacity="0"/>
<stop offset="1" stop-color="white"/>
</linearGradient>
<linearGradient id="paint23_linear_429_7730" x1="285.474" y1="117.241" x2="183.676" y2="190.878" gradientUnits="userSpaceOnUse">
<stop stop-color="white" stop-opacity="0"/>
<stop offset="1" stop-color="white"/>
</linearGradient>
<linearGradient id="paint24_linear_429_7730" x1="179.558" y1="167.597" x2="105.921" y2="269.395" gradientUnits="userSpaceOnUse">
<stop stop-color="white" stop-opacity="0"/>
<stop offset="1" stop-color="white"/>
</linearGradient>
<linearGradient id="paint25_linear_429_7730" x1="186.905" y1="5.78809" x2="113.268" y2="107.587" gradientUnits="userSpaceOnUse">
<stop stop-color="white" stop-opacity="0"/>
<stop offset="1" stop-color="white"/>
</linearGradient>
<radialGradient id="paint26_radial_429_7730" cx="0" cy="0" r="1" gradientUnits="userSpaceOnUse" gradientTransform="translate(186.611 188.095) rotate(-178.54) scale(106.244 74.113)">
<stop stop-color="white"/>
<stop offset="0.549136" stop-color="white" stop-opacity="0"/>
<stop offset="1" stop-color="white"/>
</radialGradient>
<linearGradient id="paint27_linear_429_7730" x1="220.63" y1="182.919" x2="148.953" y2="182.59" gradientUnits="userSpaceOnUse">
<stop offset="0.0001" stop-color="#EBFFFA"/>
<stop offset="1" stop-color="white" stop-opacity="0"/>
</linearGradient>
<radialGradient id="paint28_angular_429_7730" cx="0" cy="0" r="1" gradientUnits="userSpaceOnUse" gradientTransform="translate(186.729 114.732) rotate(90) scale(72.6562 155.497)">
<stop offset="0.0169069" stop-color="#DEFFF7"/>
<stop offset="0.340476" stop-color="white" stop-opacity="0"/>
<stop offset="0.745559" stop-color="white" stop-opacity="0"/>
</radialGradient>
<radialGradient id="paint29_angular_429_7730" cx="0" cy="0" r="1" gradientUnits="userSpaceOnUse" gradientTransform="translate(186.729 49.8505) rotate(90) scale(17.7251 77.2388)">
<stop offset="0.0169069" stop-color="#DEFFF7"/>
<stop offset="0.340476" stop-color="white" stop-opacity="0"/>
<stop offset="0.745559" stop-color="white" stop-opacity="0"/>
</radialGradient>
<radialGradient id="paint30_angular_429_7730" cx="0" cy="0" r="1" gradientUnits="userSpaceOnUse" gradientTransform="translate(187.049 236.643) rotate(90) scale(92.81 158.653)">
<stop offset="0.0169069" stop-color="#DEFFF7"/>
<stop offset="0.340476" stop-color="white" stop-opacity="0"/>
<stop offset="0.745559" stop-color="white" stop-opacity="0"/>
</radialGradient>
</defs>
</svg>
