<svg width="639" height="791" viewBox="0 0 639 791" fill="none" xmlns="http://www.w3.org/2000/svg">
<ellipse opacity="0.8" cx="474.898" cy="212.441" rx="98.5" ry="252.5" transform="rotate(-60 474.898 212.441)" fill="url(#paint0_linear_272_7700)"/>
<ellipse cx="268.898" cy="579.441" rx="98.5" ry="252.5" transform="rotate(-60 268.898 579.441)" fill="url(#paint1_linear_272_7700)"/>
<path d="M249.648 607.745C370.417 677.47 490.37 695.803 517.57 648.691C544.77 601.579 468.917 506.863 348.148 437.138C227.379 367.412 107.427 349.079 80.2268 396.191" stroke="white" stroke-width="2" stroke-dasharray="10"/>
<path d="M576.57 555.691C603.77 508.579 527.917 413.863 407.148 344.138C286.379 274.412 166.427 256.079 139.227 303.191C112.027 350.303 187.879 445.019 308.648 514.745" stroke="white" stroke-width="2"/>
<ellipse cx="418.898" cy="317.441" rx="98.5" ry="252.5" transform="rotate(-60 418.898 317.441)" stroke="white" stroke-width="2"/>
<path d="M402.148 331.558C522.917 401.284 640.519 423.688 664.82 381.598C689.12 339.508 610.917 248.863 490.148 179.138C369.379 109.412 251.777 87.008 227.477 129.098" stroke="white" stroke-width="2" stroke-dasharray="10"/>
<path fill-rule="evenodd" clip-rule="evenodd" d="M245.39 606.551L257.946 613.513L262.037 606.551H245.39Z" fill="white"/>
<path fill-rule="evenodd" clip-rule="evenodd" d="M397.39 330.551L409.946 337.513L414.037 330.551H397.39Z" fill="white"/>
<path fill-rule="evenodd" clip-rule="evenodd" d="M310.665 517.068L299.69 510.762L305.076 503.477L310.665 517.068Z" fill="white"/>
<defs>
<linearGradient id="paint0_linear_272_7700" x1="376.398" y1="-40.059" x2="376.398" y2="464.941" gradientUnits="userSpaceOnUse">
<stop stop-color="white" stop-opacity="0.4"/>
<stop offset="1" stop-color="white" stop-opacity="0.138081"/>
</linearGradient>
<linearGradient id="paint1_linear_272_7700" x1="170.398" y1="326.941" x2="170.398" y2="831.941" gradientUnits="userSpaceOnUse">
<stop stop-color="white" stop-opacity="0.4"/>
<stop offset="1" stop-color="white" stop-opacity="0.161199"/>
</linearGradient>
</defs>
</svg>
