<svg width="236" height="40" viewBox="0 0 236 40" fill="none" xmlns="http://www.w3.org/2000/svg">
<path d="M209.853 -1.14291e-06C215.305 -9.04615e-07 219.724 4.41932 219.724 9.87082L219.724 13.8643C219.724 24.9664 226.036 35.1027 236 40L-1.74846e-06 40C9.96355 35.1027 16.2759 24.9664 16.2759 13.8643L16.2759 9.87081C16.2759 4.41931 20.6952 -9.41127e-06 26.1467 -9.17298e-06L209.853 -1.14291e-06Z" fill="url(#paint0_linear_415_7641)"/>
<path d="M209.853 0.499999C215.029 0.499999 219.224 4.69546 219.224 9.87082L219.224 13.8643C219.224 24.4825 224.901 34.2321 234.004 39.5L1.99624 39.5C11.0993 34.2321 16.7759 24.4825 16.7759 13.8643L16.7759 9.87081C16.7759 4.69545 20.9713 0.499991 26.1467 0.499991L209.853 0.499999Z" stroke="url(#paint1_linear_415_7641)" stroke-opacity="0.4"/>
<path d="M53.3807 24V12.3636H56.1932V21.7159H61.0341V24H53.3807ZM66.5696 24.1648C65.6567 24.1648 64.8688 23.9848 64.206 23.625C63.5469 23.2613 63.0393 22.7443 62.6832 22.0738C62.331 21.3996 62.1548 20.5985 62.1548 19.6704C62.1548 18.7689 62.3329 17.981 62.6889 17.3068C63.045 16.6288 63.5469 16.1023 64.1946 15.7273C64.8423 15.3485 65.6056 15.1591 66.4844 15.1591C67.1056 15.1591 67.6738 15.2557 68.1889 15.4488C68.7041 15.642 69.1491 15.928 69.5241 16.3068C69.8991 16.6856 70.1908 17.1534 70.3991 17.7102C70.6075 18.2632 70.7116 18.8977 70.7116 19.6136V20.3068H63.1264V18.6932H68.1264C68.1226 18.3977 68.0526 18.1345 67.9162 17.9034C67.7798 17.6723 67.5923 17.4924 67.3537 17.3636C67.1188 17.231 66.848 17.1648 66.5412 17.1648C66.2306 17.1648 65.9522 17.2348 65.706 17.375C65.4598 17.5113 65.2647 17.6988 65.1207 17.9375C64.9768 18.1723 64.901 18.4394 64.8935 18.7386V20.3807C64.8935 20.7367 64.9635 21.0492 65.1037 21.3182C65.2438 21.5833 65.4427 21.7898 65.7003 21.9375C65.9579 22.0852 66.2647 22.1591 66.6207 22.1591C66.867 22.1591 67.0904 22.125 67.2912 22.0568C67.492 21.9886 67.6643 21.8882 67.8082 21.7557C67.9522 21.6231 68.0601 21.4602 68.1321 21.267L70.6832 21.3409C70.5772 21.9129 70.3442 22.411 69.9844 22.8352C69.6283 23.2557 69.1605 23.5833 68.581 23.8182C68.0014 24.0492 67.331 24.1648 66.5696 24.1648ZM74.5909 24.1477C74.0341 24.1477 73.5398 24.0549 73.108 23.8693C72.6799 23.6799 72.3409 23.3958 72.0909 23.017C71.8447 22.6345 71.7216 22.1553 71.7216 21.5795C71.7216 21.0947 71.8068 20.6856 71.9773 20.3523C72.1477 20.0189 72.3826 19.7481 72.6818 19.5398C72.9811 19.3314 73.3258 19.1742 73.7159 19.0682C74.1061 18.9583 74.5227 18.8845 74.9659 18.8466C75.4621 18.8011 75.8617 18.7538 76.1648 18.7045C76.4678 18.6515 76.6875 18.5776 76.8239 18.4829C76.964 18.3845 77.0341 18.2462 77.0341 18.0682V18.0398C77.0341 17.7481 76.9337 17.5227 76.733 17.3636C76.5322 17.2045 76.2614 17.125 75.9205 17.125C75.553 17.125 75.2576 17.2045 75.0341 17.3636C74.8106 17.5227 74.6686 17.7424 74.608 18.0227L72.0455 17.9318C72.1212 17.4015 72.3163 16.928 72.6307 16.5113C72.9489 16.0909 73.3845 15.7613 73.9375 15.5227C74.4943 15.2803 75.1629 15.1591 75.9432 15.1591C76.5 15.1591 77.0133 15.2254 77.483 15.3579C77.9527 15.4867 78.3617 15.6761 78.7102 15.9261C79.0587 16.1723 79.3277 16.4754 79.517 16.8352C79.7102 17.1951 79.8068 17.606 79.8068 18.0682V24H77.1932V22.7841H77.125C76.9697 23.0795 76.7708 23.3295 76.5284 23.5341C76.2898 23.7386 76.0076 23.892 75.6818 23.9943C75.3598 24.0966 74.9962 24.1477 74.5909 24.1477ZM75.4489 22.3295C75.7481 22.3295 76.017 22.2689 76.2557 22.1477C76.4981 22.0265 76.6913 21.8598 76.8352 21.6477C76.9792 21.4318 77.0511 21.1818 77.0511 20.8977V20.0682C76.9716 20.1098 76.875 20.1477 76.7614 20.1818C76.6515 20.2159 76.5303 20.2481 76.3977 20.2784C76.2652 20.3087 76.1288 20.3352 75.9886 20.3579C75.8485 20.3807 75.714 20.4015 75.5852 20.4204C75.3239 20.4621 75.1004 20.5265 74.9148 20.6136C74.733 20.7007 74.5928 20.8144 74.4943 20.9545C74.3996 21.0909 74.3523 21.2538 74.3523 21.4432C74.3523 21.731 74.4545 21.9507 74.6591 22.1023C74.8674 22.2538 75.1307 22.3295 75.4489 22.3295ZM81.5057 24V15.2727H84.2045V16.8636H84.2955C84.4545 16.2879 84.714 15.8598 85.0739 15.5795C85.4337 15.2954 85.8523 15.1534 86.3295 15.1534C86.4583 15.1534 86.5909 15.1629 86.7273 15.1818C86.8636 15.197 86.9905 15.2216 87.108 15.2557V17.6704C86.9754 17.625 86.8011 17.589 86.5852 17.5625C86.3731 17.536 86.1837 17.5227 86.017 17.5227C85.6875 17.5227 85.3902 17.5966 85.125 17.7443C84.8636 17.8882 84.6572 18.0909 84.5057 18.3523C84.358 18.6098 84.2841 18.9129 84.2841 19.2613V24H81.5057ZM91.0185 19.0227V24H88.2401V15.2727H90.8821V16.875H90.9787C91.1719 16.3409 91.5014 15.9223 91.9673 15.6193C92.4332 15.3125 92.9882 15.1591 93.6321 15.1591C94.2457 15.1591 94.7779 15.2973 95.2287 15.5738C95.6832 15.8466 96.0355 16.2292 96.2855 16.7216C96.5393 17.2102 96.6643 17.7822 96.6605 18.4375V24H93.8821V18.9829C93.8859 18.4981 93.7628 18.1193 93.5128 17.8466C93.2666 17.5738 92.9238 17.4375 92.4844 17.4375C92.1927 17.4375 91.9351 17.5019 91.7116 17.6307C91.492 17.7557 91.3215 17.9356 91.2003 18.1704C91.0829 18.4053 91.0223 18.6894 91.0185 19.0227ZM104.335 24H101.312L105.239 12.3636H108.983L112.909 24H109.886L107.153 15.2954H107.062L104.335 24ZM103.932 19.4204H110.25V21.5568H103.932V19.4204ZM114.162 24V12.3636H116.94V16.767H116.997C117.111 16.5019 117.272 16.2462 117.48 16C117.692 15.7538 117.961 15.553 118.287 15.3977C118.616 15.2386 119.01 15.1591 119.469 15.1591C120.075 15.1591 120.641 15.3182 121.168 15.6363C121.698 15.9545 122.126 16.4451 122.452 17.1079C122.777 17.7708 122.94 18.6155 122.94 19.642C122.94 20.6307 122.783 21.4583 122.469 22.125C122.158 22.7917 121.738 23.2917 121.207 23.625C120.681 23.9583 120.096 24.125 119.452 24.125C119.012 24.125 118.632 24.053 118.31 23.9091C117.988 23.7651 117.717 23.5757 117.497 23.3409C117.281 23.106 117.115 22.8542 116.997 22.5852H116.912V24H114.162ZM116.884 19.6363C116.884 20.106 116.946 20.5151 117.071 20.8636C117.2 21.2121 117.384 21.4829 117.622 21.6761C117.865 21.8655 118.154 21.9602 118.491 21.9602C118.832 21.9602 119.122 21.8655 119.361 21.6761C119.599 21.4829 119.779 21.2121 119.901 20.8636C120.026 20.5151 120.088 20.106 120.088 19.6363C120.088 19.1667 120.026 18.7595 119.901 18.4148C119.779 18.0701 119.599 17.803 119.361 17.6136C119.126 17.4242 118.836 17.3295 118.491 17.3295C118.151 17.3295 117.861 17.4223 117.622 17.6079C117.384 17.7935 117.2 18.0587 117.071 18.4034C116.946 18.7481 116.884 19.1591 116.884 19.6363ZM128.47 24.1648C127.554 24.1648 126.766 23.9773 126.107 23.6023C125.451 23.2235 124.946 22.697 124.589 22.0227C124.237 21.3447 124.061 20.5587 124.061 19.6648C124.061 18.767 124.237 17.981 124.589 17.3068C124.946 16.6288 125.451 16.1023 126.107 15.7273C126.766 15.3485 127.554 15.1591 128.47 15.1591C129.387 15.1591 130.173 15.3485 130.828 15.7273C131.487 16.1023 131.993 16.6288 132.345 17.3068C132.701 17.981 132.879 18.767 132.879 19.6648C132.879 20.5587 132.701 21.3447 132.345 22.0227C131.993 22.697 131.487 23.2235 130.828 23.6023C130.173 23.9773 129.387 24.1648 128.47 24.1648ZM128.487 22.0682C128.821 22.0682 129.103 21.9659 129.334 21.7613C129.565 21.5568 129.741 21.2727 129.862 20.9091C129.987 20.5454 130.05 20.125 130.05 19.6477C130.05 19.1629 129.987 18.7386 129.862 18.375C129.741 18.0113 129.565 17.7273 129.334 17.5227C129.103 17.3182 128.821 17.2159 128.487 17.2159C128.143 17.2159 127.851 17.3182 127.612 17.5227C127.377 17.7273 127.197 18.0113 127.072 18.375C126.951 18.7386 126.891 19.1629 126.891 19.6477C126.891 20.125 126.951 20.5454 127.072 20.9091C127.197 21.2727 127.377 21.5568 127.612 21.7613C127.851 21.9659 128.143 22.0682 128.487 22.0682ZM139.933 20.2329V15.2727H142.706V24H140.058V22.375H139.967C139.774 22.9091 139.445 23.3333 138.979 23.6477C138.517 23.9583 137.958 24.1136 137.303 24.1136C136.708 24.1136 136.185 23.9773 135.734 23.7045C135.284 23.4318 134.933 23.0511 134.683 22.5625C134.433 22.0701 134.306 21.4943 134.303 20.8352V15.2727H137.081V20.2898C137.085 20.7632 137.21 21.1363 137.456 21.4091C137.702 21.6818 138.037 21.8182 138.462 21.8182C138.738 21.8182 138.986 21.7576 139.206 21.6363C139.429 21.5113 139.606 21.3314 139.734 21.0966C139.867 20.8579 139.933 20.5701 139.933 20.2329ZM149.401 15.2727V17.3182H143.895V15.2727H149.401ZM145.048 13.1818H147.827V21.2557C147.827 21.4261 147.853 21.5644 147.906 21.6704C147.963 21.7727 148.045 21.8466 148.151 21.892C148.257 21.9337 148.384 21.9545 148.531 21.9545C148.637 21.9545 148.749 21.9451 148.866 21.9261C148.988 21.9034 149.079 21.8845 149.139 21.8693L149.56 23.875C149.427 23.9129 149.24 23.9602 148.997 24.017C148.759 24.0738 148.473 24.1098 148.139 24.125C147.488 24.1553 146.929 24.0795 146.463 23.8977C146.001 23.7121 145.647 23.4242 145.401 23.0341C145.158 22.6439 145.041 22.1534 145.048 21.5625V13.1818ZM154.256 24V12.3636H157.068V21.7159H161.909V24H154.256ZM165.825 24.1477C165.268 24.1477 164.774 24.0549 164.342 23.8693C163.914 23.6799 163.575 23.3958 163.325 23.017C163.079 22.6345 162.956 22.1553 162.956 21.5795C162.956 21.0947 163.041 20.6856 163.212 20.3523C163.382 20.0189 163.617 19.7481 163.916 19.5398C164.215 19.3314 164.56 19.1742 164.95 19.0682C165.34 18.9583 165.757 18.8845 166.2 18.8466C166.696 18.8011 167.096 18.7538 167.399 18.7045C167.702 18.6515 167.922 18.5776 168.058 18.4829C168.198 18.3845 168.268 18.2462 168.268 18.0682V18.0398C168.268 17.7481 168.168 17.5227 167.967 17.3636C167.767 17.2045 167.496 17.125 167.155 17.125C166.787 17.125 166.492 17.2045 166.268 17.3636C166.045 17.5227 165.903 17.7424 165.842 18.0227L163.28 17.9318C163.356 17.4015 163.551 16.928 163.865 16.5113C164.183 16.0909 164.619 15.7613 165.172 15.5227C165.729 15.2803 166.397 15.1591 167.178 15.1591C167.734 15.1591 168.248 15.2254 168.717 15.3579C169.187 15.4867 169.596 15.6761 169.945 15.9261C170.293 16.1723 170.562 16.4754 170.751 16.8352C170.945 17.1951 171.041 17.606 171.041 18.0682V24H168.428V22.7841H168.359C168.204 23.0795 168.005 23.3295 167.763 23.5341C167.524 23.7386 167.242 23.892 166.916 23.9943C166.594 24.0966 166.231 24.1477 165.825 24.1477ZM166.683 22.3295C166.982 22.3295 167.251 22.2689 167.49 22.1477C167.732 22.0265 167.926 21.8598 168.07 21.6477C168.214 21.4318 168.286 21.1818 168.286 20.8977V20.0682C168.206 20.1098 168.109 20.1477 167.996 20.1818C167.886 20.2159 167.765 20.2481 167.632 20.2784C167.5 20.3087 167.363 20.3352 167.223 20.3579C167.083 20.3807 166.948 20.4015 166.82 20.4204C166.558 20.4621 166.335 20.5265 166.149 20.6136C165.967 20.7007 165.827 20.8144 165.729 20.9545C165.634 21.0909 165.587 21.2538 165.587 21.4432C165.587 21.731 165.689 21.9507 165.893 22.1023C166.102 22.2538 166.365 22.3295 166.683 22.3295ZM172.74 27.2727V15.2727H175.49V16.767H175.575C175.689 16.5019 175.85 16.2462 176.058 16C176.27 15.7538 176.539 15.553 176.865 15.3977C177.195 15.2386 177.589 15.1591 178.047 15.1591C178.653 15.1591 179.219 15.3182 179.746 15.6363C180.276 15.9545 180.704 16.4451 181.03 17.1079C181.356 17.7708 181.518 18.6155 181.518 19.642C181.518 20.6307 181.361 21.4583 181.047 22.125C180.736 22.7917 180.316 23.2917 179.786 23.625C179.259 23.9583 178.674 24.125 178.03 24.125C177.59 24.125 177.21 24.053 176.888 23.9091C176.566 23.7651 176.295 23.5757 176.075 23.3409C175.859 23.106 175.693 22.8542 175.575 22.5852H175.518V27.2727H172.74ZM175.462 19.6363C175.462 20.106 175.524 20.5151 175.649 20.8636C175.778 21.2121 175.962 21.4829 176.2 21.6761C176.443 21.8655 176.732 21.9602 177.07 21.9602C177.411 21.9602 177.7 21.8655 177.939 21.6761C178.178 21.4829 178.357 21.2121 178.479 20.8636C178.604 20.5151 178.666 20.106 178.666 19.6363C178.666 19.1667 178.604 18.7595 178.479 18.4148C178.357 18.0701 178.178 17.803 177.939 17.6136C177.704 17.4242 177.414 17.3295 177.07 17.3295C176.729 17.3295 176.439 17.4223 176.2 17.6079C175.962 17.7935 175.778 18.0587 175.649 18.4034C175.524 18.7481 175.462 19.1591 175.462 19.6363ZM187.901 15.2727V17.3182H182.395V15.2727H187.901ZM183.548 13.1818H186.327V21.2557C186.327 21.4261 186.353 21.5644 186.406 21.6704C186.463 21.7727 186.545 21.8466 186.651 21.892C186.757 21.9337 186.884 21.9545 187.031 21.9545C187.137 21.9545 187.249 21.9451 187.366 21.9261C187.488 21.9034 187.579 21.8845 187.639 21.8693L188.06 23.875C187.927 23.9129 187.74 23.9602 187.497 24.017C187.259 24.0738 186.973 24.1098 186.639 24.125C185.988 24.1553 185.429 24.0795 184.963 23.8977C184.501 23.7121 184.147 23.4242 183.901 23.0341C183.658 22.6439 183.541 22.1534 183.548 21.5625V13.1818ZM193.298 24.1648C192.382 24.1648 191.594 23.9773 190.935 23.6023C190.279 23.2235 189.774 22.697 189.418 22.0227C189.065 21.3447 188.889 20.5587 188.889 19.6648C188.889 18.767 189.065 17.981 189.418 17.3068C189.774 16.6288 190.279 16.1023 190.935 15.7273C191.594 15.3485 192.382 15.1591 193.298 15.1591C194.215 15.1591 195.001 15.3485 195.656 15.7273C196.315 16.1023 196.821 16.6288 197.173 17.3068C197.529 17.981 197.707 18.767 197.707 19.6648C197.707 20.5587 197.529 21.3447 197.173 22.0227C196.821 22.697 196.315 23.2235 195.656 23.6023C195.001 23.9773 194.215 24.1648 193.298 24.1648ZM193.315 22.0682C193.649 22.0682 193.931 21.9659 194.162 21.7613C194.393 21.5568 194.569 21.2727 194.69 20.9091C194.815 20.5454 194.878 20.125 194.878 19.6477C194.878 19.1629 194.815 18.7386 194.69 18.375C194.569 18.0113 194.393 17.7273 194.162 17.5227C193.931 17.3182 193.649 17.2159 193.315 17.2159C192.971 17.2159 192.679 17.3182 192.44 17.5227C192.205 17.7273 192.026 18.0113 191.901 18.375C191.779 18.7386 191.719 19.1629 191.719 19.6477C191.719 20.125 191.779 20.5454 191.901 20.9091C192.026 21.2727 192.205 21.5568 192.44 21.7613C192.679 21.9659 192.971 22.0682 193.315 22.0682ZM206.75 17.9375L204.199 18.0057C204.172 17.8238 204.1 17.6629 203.983 17.5227C203.866 17.3788 203.712 17.267 203.523 17.1875C203.337 17.1042 203.121 17.0625 202.875 17.0625C202.553 17.0625 202.278 17.1269 202.051 17.2557C201.828 17.3845 201.718 17.5587 201.722 17.7784C201.718 17.9488 201.786 18.0966 201.926 18.2216C202.07 18.3466 202.326 18.447 202.693 18.5227L204.375 18.8409C205.246 19.0076 205.894 19.2841 206.318 19.6704C206.746 20.0568 206.962 20.5682 206.966 21.2045C206.962 21.803 206.784 22.3238 206.432 22.767C206.083 23.2102 205.606 23.5549 205 23.8011C204.394 24.0435 203.701 24.1648 202.92 24.1648C201.674 24.1648 200.691 23.9091 199.972 23.3977C199.256 22.8826 198.847 22.1932 198.744 21.3295L201.489 21.2613C201.549 21.5795 201.706 21.822 201.96 21.9886C202.214 22.1553 202.538 22.2386 202.932 22.2386C203.288 22.2386 203.578 22.1723 203.801 22.0398C204.025 21.9072 204.138 21.731 204.142 21.5113C204.138 21.3144 204.051 21.1572 203.881 21.0398C203.71 20.9185 203.443 20.8238 203.08 20.7557L201.557 20.4659C200.682 20.3068 200.03 20.0132 199.602 19.5852C199.174 19.1534 198.962 18.6042 198.966 17.9375C198.962 17.3542 199.117 16.856 199.432 16.4432C199.746 16.0265 200.193 15.7083 200.773 15.4886C201.352 15.2689 202.036 15.1591 202.824 15.1591C204.006 15.1591 204.938 15.4072 205.619 15.9034C206.301 16.3958 206.678 17.0738 206.75 17.9375Z" fill="#3B35BF"/>
<circle r="8.66667" transform="matrix(1.31134e-07 -1 -1 -1.31134e-07 36.5 18.5)" fill="white" stroke="#3B35BF" stroke-width="1.33333"/>
<path d="M36.8503 14.2639L40.8018 21.1665C41.0402 21.6673 40.5344 22.1985 40.0576 21.9481L36.6171 20.3958C36.4688 20.318 36.2952 20.3138 36.1437 20.3845L32.9197 21.8893C32.4318 22.1171 31.9492 21.5602 32.211 21.0714L35.8706 14.2388C36.0887 13.8317 36.6514 13.8461 36.8503 14.2639Z" fill="#3B35BF"/>
<defs>
<linearGradient id="paint0_linear_415_7641" x1="141.6" y1="40" x2="141.6" y2="0.999997" gradientUnits="userSpaceOnUse">
<stop stop-color="#4038FF" stop-opacity="0"/>
<stop offset="1" stop-color="#4038FF" stop-opacity="0.46"/>
</linearGradient>
<linearGradient id="paint1_linear_415_7641" x1="122.883" y1="40" x2="122.883" y2="-4.01869e-06" gradientUnits="userSpaceOnUse">
<stop stop-color="#4038FF" stop-opacity="0"/>
<stop offset="1" stop-color="#4038FF"/>
</linearGradient>
</defs>
</svg>
