<svg width="45" height="50" viewBox="0 0 45 50" fill="none" xmlns="http://www.w3.org/2000/svg">
<path d="M2.08579 22.5858C1.30474 23.3668 1.30474 24.6332 2.08579 25.4142L14.8137 38.1421C15.5948 38.9232 16.8611 38.9232 17.6421 38.1421C18.4232 37.3611 18.4232 36.0948 17.6421 35.3137L6.32843 24L17.6421 12.6863C18.4232 11.9052 18.4232 10.6389 17.6421 9.85786C16.8611 9.07682 15.5948 9.07682 14.8137 9.85786L2.08579 22.5858ZM42.9142 25.4142C43.6953 24.6332 43.6953 23.3668 42.9142 22.5858L30.1863 9.85786C29.4052 9.07682 28.1389 9.07682 27.3579 9.85786C26.5768 10.6389 26.5768 11.9052 27.3579 12.6863L38.6716 24L27.3579 35.3137C26.5768 36.0948 26.5768 37.3611 27.3579 38.1421C28.1389 38.9232 29.4052 38.9232 30.1863 38.1421L42.9142 25.4142ZM3.5 26H41.5V22H3.5V26Z" fill="black"/>
</svg>
