<svg width="40" height="40" viewBox="0 0 40 40" fill="none" xmlns="http://www.w3.org/2000/svg">
<path fill-rule="evenodd" clip-rule="evenodd" d="M20 6.00008C16.6763 6.00053 13.4611 7.18346 10.9297 9.33728C8.39825 11.4911 6.71566 14.4753 6.1829 17.756C5.65014 21.0368 6.30197 24.4 8.02178 27.2442C9.7416 30.0884 12.4172 32.2279 15.57 33.2801C16.27 33.4101 16.57 32.9801 16.57 32.6101V30.2301C12.68 31.0701 11.86 28.3501 11.86 28.3501C11.5864 27.4929 11.0107 26.7644 10.24 26.3001C8.96999 25.4401 10.34 25.4501 10.34 25.4501C10.7836 25.5128 11.207 25.676 11.5779 25.9273C11.9488 26.1786 12.2573 26.5113 12.48 26.9001C12.8673 27.5948 13.5147 28.1073 14.2798 28.3248C15.0449 28.5423 15.8651 28.4471 16.56 28.0601C16.6165 27.3506 16.9293 26.6858 17.44 26.1901C14.34 25.8301 11.07 24.6301 11.07 19.2701C11.0473 17.878 11.5632 16.5309 12.51 15.5101C12.0815 14.3043 12.1316 12.9801 12.65 11.8101C12.65 11.8101 13.82 11.4301 16.5 13.2401C18.7915 12.615 21.2085 12.615 23.5 13.2401C26.17 11.4301 27.34 11.8101 27.34 11.8101C27.8584 12.9801 27.9085 14.3043 27.48 15.5101C28.4268 16.5309 28.9427 17.878 28.92 19.2701C28.92 24.6501 25.65 25.8301 22.53 26.1801C22.8642 26.5188 23.1219 26.9253 23.2858 27.3721C23.4497 27.8189 23.5159 28.2956 23.48 28.7701V32.6101C23.48 33.0701 23.73 33.4201 24.48 33.2801C27.6369 32.2266 30.3153 30.083 32.0348 27.2335C33.7544 24.3841 34.4026 21.0153 33.8633 17.7313C33.324 14.4472 31.6324 11.4627 29.0919 9.31285C26.5513 7.16304 23.328 5.98859 20 6.00008Z" fill="black"/>
</svg>
