<svg width="40" height="40" viewBox="0 0 40 40" fill="none" xmlns="http://www.w3.org/2000/svg">
<path d="M33.8668 11.3997C32.846 11.853 31.7495 12.1581 30.5986 12.2957C31.774 11.5917 32.6754 10.477 33.0999 9.14793C32.0012 9.79967 30.7831 10.2733 29.486 10.5293C28.4482 9.42313 26.9698 8.73193 25.3335 8.73193C22.1911 8.73193 19.6439 11.2802 19.6439 14.4215C19.6439 14.8674 19.6951 15.3026 19.7911 15.7175C15.0626 15.4807 10.8706 13.2151 8.06309 9.77193C7.57456 10.6125 7.29402 11.5895 7.29402 12.6338C7.29402 14.6071 8.29776 16.349 9.82416 17.3687C8.89189 17.3389 8.01402 17.0829 7.24709 16.6573C7.24709 16.6818 7.24709 16.7042 7.24709 16.7287C7.24709 19.4861 9.20762 21.7858 11.8114 22.3074C11.3346 22.4375 10.8311 22.5069 10.3116 22.5069C9.94576 22.5069 9.58842 22.4706 9.24176 22.4055C9.96602 24.6658 12.0674 26.3117 14.557 26.3575C12.6103 27.8839 10.157 28.7938 7.49029 28.7938C7.03162 28.7938 6.57829 28.7671 6.13242 28.7138C8.65082 30.3277 11.6407 31.2695 14.8546 31.2695C25.3207 31.2695 31.0423 22.5997 31.0423 15.0807C31.0423 14.8343 31.037 14.589 31.0263 14.3447C32.1388 13.5415 33.1042 12.5399 33.8668 11.3997Z" fill="black"/>
</svg>
