<svg width="40" height="40" viewBox="0 0 40 40" fill="none" xmlns="http://www.w3.org/2000/svg">
<path d="M29.6935 11.1066C27.9202 10.28 26.0002 9.67998 24.0002 9.33331C23.9826 9.33275 23.9652 9.33604 23.9491 9.34295C23.9329 9.34987 23.9185 9.36023 23.9068 9.37331C23.6668 9.81331 23.3868 10.3866 23.2002 10.8266C21.0788 10.5066 18.9215 10.5066 16.8002 10.8266C16.6135 10.3733 16.3335 9.81331 16.0802 9.37331C16.0668 9.34665 16.0268 9.33331 15.9868 9.33331C13.9868 9.67998 12.0802 10.28 10.2935 11.1066C10.2802 11.1066 10.2668 11.12 10.2535 11.1333C6.62683 16.56 5.62683 21.84 6.12016 27.0666C6.12016 27.0933 6.13349 27.12 6.16016 27.1333C8.56016 28.8933 10.8668 29.96 13.1468 30.6666C13.1868 30.68 13.2268 30.6666 13.2402 30.64C13.7735 29.9066 14.2535 29.1333 14.6668 28.32C14.6935 28.2666 14.6668 28.2133 14.6135 28.2C13.8535 27.9066 13.1335 27.56 12.4268 27.16C12.3735 27.1333 12.3735 27.0533 12.4135 27.0133C12.5602 26.9066 12.7068 26.7866 12.8535 26.68C12.8802 26.6533 12.9202 26.6533 12.9468 26.6666C17.5335 28.76 22.4802 28.76 27.0135 26.6666C27.0402 26.6533 27.0802 26.6533 27.1068 26.68C27.2535 26.8 27.4002 26.9066 27.5468 27.0266C27.6002 27.0666 27.6002 27.1466 27.5335 27.1733C26.8402 27.5866 26.1068 27.92 25.3468 28.2133C25.2935 28.2266 25.2802 28.2933 25.2935 28.3333C25.7202 29.1466 26.2002 29.92 26.7202 30.6533C26.7602 30.6666 26.8002 30.68 26.8402 30.6666C29.1335 29.96 31.4402 28.8933 33.8402 27.1333C33.8668 27.12 33.8802 27.0933 33.8802 27.0666C34.4668 21.0266 32.9068 15.7866 29.7468 11.1333C29.7335 11.12 29.7202 11.1066 29.6935 11.1066ZM15.3602 23.88C13.9868 23.88 12.8402 22.6133 12.8402 21.0533C12.8402 19.4933 13.9602 18.2266 15.3602 18.2266C16.7735 18.2266 17.8935 19.5066 17.8802 21.0533C17.8802 22.6133 16.7602 23.88 15.3602 23.88ZM24.6535 23.88C23.2802 23.88 22.1335 22.6133 22.1335 21.0533C22.1335 19.4933 23.2535 18.2266 24.6535 18.2266C26.0668 18.2266 27.1868 19.5066 27.1735 21.0533C27.1735 22.6133 26.0668 23.88 24.6535 23.88Z" fill="black"/>
</svg>
