<svg width="38" height="38" viewBox="0 0 38 38" fill="none" xmlns="http://www.w3.org/2000/svg">
  <path
    d="M16.713 19L16.9084 18.4136C17.8423 15.6119 20.4642 13.7222 23.4174 13.7222H31.684L33.1448 8.97218H22.4214C17.6202 8.97218 13.3648 12.0636 11.8808 16.6298L11.1105 19H16.713Z"
    fill="#4038FF" />
  <path
    d="M22.4214 7.91663H33.4694L34.9302 3.16663H18.4601C13.3622 3.16663 8.86051 6.49196 7.36199 11.3647L5.0139 19H10.0006L10.8769 16.3036C12.5023 11.3025 17.1629 7.91663 22.4214 7.91663Z"
    fill="#4038FF" />
  <path
    d="M21.2871 19L21.0916 19.5863C20.1577 22.388 17.5358 24.2777 14.5826 24.2777H6.31599L4.85522 29.0277H15.5786C20.3799 29.0277 24.6352 25.9363 26.1192 21.3701L26.8895 19H21.2871Z"
    fill="#4038FF" />
  <path
    d="M15.5786 30.0833H4.5306L3.06982 34.8333H19.5399C24.6378 34.8333 29.1395 31.508 30.638 26.6352L32.9861 19H27.9994L27.1231 21.6964C25.4977 26.6974 20.8371 30.0833 15.5786 30.0833Z"
    fill="#4038FF" />
</svg>