<svg width="108" height="36" viewBox="0 0 108 36" fill="none" xmlns="http://www.w3.org/2000/svg">
  <path
    d="M39.5732 10.4261C39.6043 10.3951 39.6669 10.2649 39.761 10.0357C39.9206 9.64671 40.2931 9.37927 40.7118 9.41821C41.6632 9.50673 42.8106 9.76671 44.154 10.1982C44.6664 10.3627 44.9418 10.9111 44.7963 11.4293C44.252 13.367 43.807 15.3843 43.4614 17.481C43.0606 19.8861 42.8602 21.6097 42.8602 22.6519C42.8602 23.6674 42.9671 24.1751 43.1808 24.1751C43.299 24.1751 43.911 23.9064 44.6313 23.5618C45.0733 23.3504 45.6059 23.5236 45.8299 23.9593C46.0166 24.3222 45.934 24.7657 45.6192 25.0254C45.4868 25.1346 45.3421 25.252 45.1851 25.3776C44.8109 25.6983 44.0894 26.1392 43.0205 26.7004C41.9516 27.2349 40.9896 27.5021 40.1344 27.5021C38.4776 27.5021 37.5156 26.7539 37.2483 25.2574C35.5381 26.7539 33.9881 27.5021 32.5986 27.5021C31.2357 27.5021 30.0732 26.9676 29.1112 25.8987C28.1759 24.8298 27.7083 23.1463 27.7083 20.8481C27.7083 17.2672 28.4431 14.4479 29.9129 12.3903C31.3827 10.3059 33.1597 9.26369 35.2441 9.26369C36.7406 9.26369 38.1837 9.65117 39.5732 10.4261ZM35.0036 24.0949C35.645 24.0949 36.3665 23.8411 37.1682 23.3333C37.3552 19.5654 37.9832 15.8375 39.0521 12.1498C38.2505 11.8024 37.569 11.6287 37.0078 11.6287C36.0458 11.6287 35.2174 12.5773 34.5226 14.4747C33.8545 16.3453 33.5205 18.4163 33.5205 20.6877C33.5205 22.9592 34.0149 24.0949 35.0036 24.0949Z"
    fill="#4038FF" />
  <path
    d="M47.152 35.8802C46.2995 35.975 45.5653 35.4436 45.5357 34.5864C45.5282 34.371 45.5245 34.134 45.5245 33.8755C45.5245 32.7799 46.0456 29.8404 47.0878 25.057C48.13 20.2468 48.6511 16.5457 48.6511 13.9536C48.5965 12.824 48.2273 11.7046 47.8388 10.9362C47.6431 10.549 47.8794 9.91082 48.308 9.84351C49.5111 9.65455 50.9514 9.4762 52.9462 9.43361C53.5088 9.4216 54.0387 9.7353 54.1834 10.2792C54.2978 10.7092 54.3778 11.2125 54.4233 11.789C56.4809 10.1055 58.1912 9.26369 59.5541 9.26369C60.9437 9.26369 62.0527 9.83823 62.8811 10.9873C63.7362 12.1364 64.1638 13.82 64.1638 16.038C64.1638 19.9128 63.4556 22.7989 62.0393 24.6962C60.623 26.5668 58.8326 27.5021 56.668 27.5021C55.8216 27.5021 54.8537 27.3197 54.108 27.0925C53.723 26.9753 53.5116 26.5802 53.5827 26.1841L53.5922 26.1314C53.6738 25.6765 54.1214 25.3776 54.5836 25.3776C55.2784 25.3776 55.8797 25.057 56.3874 24.4156C56.9219 23.7743 57.3227 22.9592 57.5899 21.9705C58.1244 19.993 58.3916 18.1624 58.3916 16.4789C58.3916 14.0738 57.8973 12.8713 56.9085 12.8713C56.1335 12.8713 55.3051 13.1786 54.4233 13.7932C54.3164 15.6638 53.7686 18.9374 52.7798 23.6139C51.9402 27.5853 51.457 30.9014 51.3304 33.5622C51.2914 34.3815 50.8028 35.1321 50.0124 35.3512C49.1653 35.5859 48.2119 35.7622 47.152 35.8802Z"
    fill="#4038FF" />
  <path
    d="M77.444 9.7447C78.0328 9.7447 78.4941 10.2502 78.3295 10.8155C78.2747 11.0035 78.2097 11.1978 78.1344 11.3984C77.9819 11.8049 77.564 12.0372 77.1313 12.0017C76.3797 11.9401 75.659 11.9093 74.9691 11.9093H74.2475C73.0183 17.8685 72.4036 21.583 72.4036 23.0527C72.4036 23.8277 72.564 24.2152 72.8847 24.2152C73.169 24.2152 73.8205 23.9913 74.8391 23.5436C75.2523 23.3621 75.7383 23.5211 75.9544 23.9173C76.1505 24.2767 76.0657 24.7267 75.7423 24.9776C73.573 26.6606 71.5515 27.5021 69.6779 27.5021C68.7426 27.5021 67.9676 27.2082 67.353 26.6202C66.7651 26.0323 66.4711 25.2574 66.4711 24.2953C66.4711 23.3066 66.578 22.1976 66.7918 20.9683C67.0323 19.7391 67.353 18.2426 67.7539 16.4789C68.1547 14.6884 68.4487 13.2454 68.6357 12.1498C68.1803 12.1867 67.7787 12.2236 67.431 12.2605C66.8771 12.3194 66.4098 11.9394 66.4244 11.3826C66.4298 11.1773 66.4368 10.9612 66.4437 10.7528C66.4622 10.1961 66.9227 9.7447 67.4798 9.7447H68.9965C69.1474 8.7258 69.2251 7.06741 69.2577 5.72903C69.2787 4.86952 69.8195 4.09483 70.6482 3.86582C71.9118 3.51665 73.1287 3.30711 74.2992 3.23719C74.7985 3.20736 75.2115 3.57885 75.2109 4.07909C75.2092 5.49883 75.0076 7.99071 74.6484 9.7447H77.444Z"
    fill="#4038FF" />
  <path
    d="M83.5412 27.5021C81.6973 27.5021 80.2542 26.8608 79.212 25.578C78.1699 24.2686 77.6488 22.4515 77.6488 20.1266C77.6488 17.1603 78.4371 14.6083 80.0137 12.4704C81.6171 10.3326 83.8218 9.26369 86.6277 9.26369L88.0707 9.34386C88.525 9.10335 89.0327 8.9831 89.5939 8.9831C91.705 8.9831 92.7606 10.974 92.7606 14.9557C93.8562 14.9022 94.9652 14.7553 96.0876 14.5147L96.7289 14.3544L96.9695 15.9177C96.0876 16.2918 94.8984 16.6259 93.4019 16.9198L92.6003 17.0802C92.0925 19.8861 91.0637 22.3312 89.5138 24.4156C87.9638 26.4733 85.973 27.5021 83.5412 27.5021ZM85.7057 24.0548C86.8281 24.0548 87.8302 23.3333 88.7121 21.8903C89.6206 20.4472 90.2486 18.924 90.596 17.3207C87.7367 17.3207 86.307 16.2517 86.307 14.1139C86.307 13.2588 86.4807 12.4571 86.8281 11.7088L87.0285 11.308C86.9216 11.2545 86.788 11.2278 86.6277 11.2278C86.4673 11.2278 86.3471 11.2545 86.2669 11.308C85.5988 11.7356 84.9708 12.7377 84.3829 14.3143C83.795 15.891 83.5011 17.6948 83.5011 19.7257C83.5011 22.6118 84.236 24.0548 85.7057 24.0548Z"
    fill="#4038FF" />
  <path
    d="M106.521 21.77C106.521 23.4536 105.773 24.8298 104.277 25.8987C102.807 26.9676 101.123 27.5021 99.2261 27.5021C97.3288 27.5021 95.8189 27.1013 94.6965 26.2996C93.6009 25.4979 93.1513 24.7818 93.0531 24.1751C92.9876 23.7706 92.9147 22.5984 93.85 21.77C94.7853 20.9149 96.1925 20.808 96.821 20.808C96.4433 24.4156 98.2071 25.3311 100.011 25.3311C101 25.251 101.591 24.9501 101.591 24.0949C101.591 22.8657 100.509 21.1287 98.3442 18.884C96.1797 16.6125 95.0974 14.8087 95.0974 13.4726C95.0974 12.1364 95.6986 11.1076 96.9012 10.3861C98.1037 9.63781 99.5468 9.26369 101.23 9.26369C102.941 9.26369 104.223 9.571 105.078 10.1856C105.934 10.7735 106.361 11.5886 106.361 12.6308C106.361 13.6463 105.546 15.0626 103.916 16.8797C104.103 17.0668 104.344 17.3207 104.637 17.6413C104.931 17.9353 105.319 18.5098 105.8 19.365C106.281 20.2201 106.521 21.0218 106.521 21.77ZM102.673 15.4768C103.796 14.5148 104.357 13.5661 104.357 12.6308C104.357 11.6955 103.716 11.2278 102.433 11.2278C101.818 11.2278 101.31 11.3614 100.91 11.6287C100.509 11.8692 100.308 12.1498 100.308 12.4704C100.308 13.0583 100.896 13.8868 102.072 14.9557L102.673 15.4768Z"
    fill="#4038FF" />
  <path fill-rule="evenodd" clip-rule="evenodd"
    d="M11.9549 20.2831C13.9548 21.6693 18.3273 23.264 23.347 21.7248C28.656 20.0969 24.6387 25.7982 23.6347 26.7733C19.8932 30.4068 14.2876 29.1462 9.57969 23.5531C8.25384 24.5113 6.90909 24.9904 5.54543 24.9904C4.14942 24.9904 3.09845 24.6594 2.39253 23.9976C1.68831 23.3129 1.37105 22.5027 1.44075 21.567C1.51045 20.6313 1.78682 19.768 2.56845 19.1061C3.35009 18.4443 4.34791 18.1779 5.26333 18.1779C6.20164 18.1779 7.07338 18.3034 7.87855 18.5545C8.33064 17.0939 8.69248 15.4621 8.9641 13.6591C6.46957 13.1391 4.35194 11.0574 4.57634 8.04484C4.62049 7.45218 4.86554 6.72774 5.5965 6.50935C6.32746 6.29097 7.28518 6.75031 7.62999 7.98895C7.63476 8.00607 7.63951 8.02316 7.64425 8.04021C7.98256 9.25621 8.26504 10.2716 9.37274 10.5025C9.58841 8.75486 9.71861 7.99867 9.83372 7.33011C9.84187 7.28274 9.84995 7.23582 9.85798 7.18901C10.2933 4.7242 11.2867 2.90984 12.838 1.7459C14.4123 0.581967 16.1721 0 18.1173 0C20.0855 0 21.5488 0.479267 22.5072 1.4378C23.4674 2.37351 23.8888 3.62874 23.7715 5.20347C23.6559 6.75539 22.6647 8.38718 20.7979 10.0988C18.954 11.8105 16.7364 13.0087 14.1451 13.6933C13.5274 15.7954 12.7974 17.992 11.9549 20.2831ZM20.105 3.73144C20.3313 4.07377 20.4232 4.53021 20.3807 5.10077C20.2991 6.19624 19.7941 7.29171 18.8657 8.38718C17.939 9.45982 16.6446 10.2472 14.9823 10.7493L15.6808 8.28448C16.2008 6.52716 16.7194 5.24912 17.2366 4.45034C17.7555 3.62874 18.404 3.21794 19.1821 3.21794C19.594 3.21794 19.9017 3.3891 20.105 3.73144ZM5.63546 20.095C6.07028 20.095 6.53643 20.289 7.03389 20.677C6.3251 21.5898 5.66175 22.0463 5.04384 22.0463C4.75631 22.0265 4.17341 21.7496 4.21761 21.1562C4.23631 20.9052 4.3256 20.6373 4.63093 20.4136C4.97065 20.1646 5.20063 20.095 5.63546 20.095Z"
    fill="#4038FF" />
</svg>